<svg xmlns="http://www.w3.org/2000/svg" viewBox="0 0 151 151" enable-background="new 0 0 151 151"><path fill="#fff" d="M71.624 45.875v-4.603c0-.795.63-1.44 1.41-1.44h4.934c.778 0 1.41.644 1.41 1.44v4.603c0 .795-.632 1.44-1.41 1.44h-4.935c-.78 0-1.41-.645-1.41-1.44zM151 0v151H0V0h151zM67.94 48.062c0 1.55 1.23 2.808 2.747 2.808h9.626c1.518 0 2.748-1.257 2.748-2.808v-8.978c0-1.55-1.23-2.808-2.747-2.808h-9.626c-1.518 0-2.748 1.257-2.748 2.808v8.978zm40.08 16.807c0-9.576-9.97-9.51-9.97-9.51H54.27l-11.094 9.18v23.573h10.5l-10.698 26.61h6.01L61.335 83.49H49.68V65.1l4.59-4.59h8.452v54.214h5.943V88.046h13.207v26.677h15.65c9.245 0 10.5-10.83 10.5-10.83V64.87zM69.44 83.49h12.434V60.51H69.438v22.98zm29.47-22.98H88.74v49.327h5.48c8.49 0 8.418-7.792 8.418-7.792s-.03-31.828-.03-36.318-3.7-5.217-3.7-5.217z"/></svg>